<?xml version="1.0" encoding="utf-8"?>
<!-- Svg Vector Icons : http://www.onlinewebfonts.com/icon -->
<!DOCTYPE svg PUBLIC "-//W3C//DTD SVG 1.1//EN" "http://www.w3.org/Graphics/SVG/1.1/DTD/svg11.dtd">
<svg version="1.1" xmlns="http://www.w3.org/2000/svg" xmlns:xlink="http://www.w3.org/1999/xlink" x="0px" y="0px" viewBox="0 0 256 256" enable-background="new 0 0 256 256" xml:space="preserve">
<metadata> Svg Vector Icons : http://www.onlinewebfonts.com/icon </metadata>
<g><g><g><path fill="#000000" d="M50.1,84.2c-1,0.4-2.4,1-3.2,1.4c-0.7,0.4-8.9,8.3-18.1,17.5C10,122,10,121.9,10,127.9c0,3,0.2,3.9,1.4,6.5c1.3,2.6,3.6,5.1,18,19.4c15.3,15.2,16.7,16.5,19.2,17.4c7.3,2.7,15-0.2,18.7-7.1c1.1-2,1.2-2.9,1.2-6.5c0-6.3-0.4-6.9-12.6-19.3l-10.4-10.5l10.7-10.8c9.6-9.6,10.7-11,11.6-13.4c3.5-9.5-2.8-19.3-12.8-20C53.2,83.7,51.2,83.8,50.1,84.2z"/><path fill="#000000" d="M197.8,84.2c-2.9,1-4.5,1.9-6.6,4.1c-2.8,2.9-4,5.9-4,10.1c0,5.9,0.8,7.2,12.9,19.4l10.4,10.4l-10.4,10.3c-11.2,11.2-12.4,12.8-12.9,17.5c-0.8,6.8,4.1,14,10.7,15.7c3,0.8,7.9,0.3,10.6-1.1c1.7-0.9,6.8-5.7,19-18c15.7-15.7,16.8-16.9,17.7-19.5c1.3-3.7,1.2-8.3-0.6-11.9c-1.7-3.5-33.2-34.8-36.5-36.3C205.2,83.7,200.4,83.4,197.8,84.2z"/><path fill="#000000" d="M79.9,113.7c-2.8,0.8-5.1,2.2-7.2,4.5c-2.6,3-3.6,5.6-3.6,9.7c0,3.1,0.1,3.9,1.6,6.7c2.8,5.5,7.8,8.4,14,7.9c7.5-0.5,13.1-6.1,13.6-13.6c0.3-4.1-0.6-6.9-3-10.1C91.9,114.6,85.1,112.3,79.9,113.7z"/><path fill="#000000" d="M124.2,113.7c-2.8,0.8-5.1,2.2-7.2,4.5c-2.6,3-3.6,5.6-3.6,9.7c0,3.1,0.1,3.9,1.6,6.7c2.8,5.5,7.8,8.4,14,7.9c7.5-0.5,13.1-6.1,13.6-13.6c0.3-4.1-0.6-6.9-3-10.1C136.2,114.6,129.4,112.3,124.2,113.7z"/><path fill="#000000" d="M168.5,113.7c-6.5,1.8-10.8,7.4-10.8,14.2c0,3,0.1,3.9,1.5,6.6c2.8,5.6,8,8.5,14.4,8.1c11.6-0.8,17.5-14.6,10.2-23.8C180.4,114.5,173.7,112.3,168.5,113.7z"/></g></g></g>
</svg>